<?xml version="1.0" encoding="UTF-8"?>
<svg width="52px" height="31px" viewBox="0 0 52 31" version="1.1" xmlns="http://www.w3.org/2000/svg" xmlns:xlink="http://www.w3.org/1999/xlink">
    <!-- Generator: Sketch 46.2 (44496) - http://www.bohemiancoding.com/sketch -->
    <title>Page 1</title>
    <desc>Created with Sketch.</desc>
    <defs>
        <polygon id="path-1" points="52 31 52 3.83664055e-15 0 0 0 31"></polygon>
    </defs>
    <g id="Page-1" stroke="none" stroke-width="1" fill="none" fill-rule="evenodd">
        <g id="CityViewQuickMode" transform="translate(-49.000000, -360.000000)">
            <g id="Page-1" transform="translate(49.000000, 360.000000)">
                <mask id="mask-2" fill="white">
                    <use xlink:href="#path-1"></use>
                </mask>
                <g id="Clip-2"></g>
                <path d="M13.8381579,7.45265124 C11.7547368,7.45265124 10.0598105,9.12463477 10.0598105,11.1797193 C10.0598105,11.766115 10.1947368,12.3280774 10.4607579,12.850083 C10.6697158,13.2600469 10.6532947,13.7466851 10.4169684,14.1420702 C10.1806421,14.5373203 9.75697895,14.7871864 9.29212632,14.8052751 C5.61627368,14.9484992 2.73684211,17.9111201 2.73684211,21.5499049 C2.73684211,25.2476801 5.7928,28.2759061 9.54911579,28.3002042 L42.5008316,28.2996643 C46.2234842,28.263352 49.2631579,25.2353961 49.2631579,21.5499049 C49.2631579,17.8270215 46.1926947,14.7981206 42.4187263,14.7981206 C42.2780526,14.7981206 42.1252,14.8040601 41.9375895,14.8170192 C41.5745474,14.8419923 41.2158842,14.7227963 40.9417895,14.4862942 C40.6676947,14.2497921 40.5004737,13.9152874 40.4772105,13.5567545 C40.0813263,7.46871503 34.9216947,2.69979577 28.7306842,2.69979577 C24.5788947,2.69979577 20.8131368,4.79321742 18.6571895,8.29984716 C18.4390632,8.6548703 18.0672632,8.89110243 17.6493474,8.9403737 C17.2315684,8.98897003 16.8137895,8.84628582 16.5169789,8.55187309 C15.8023895,7.84304171 14.8509263,7.45265124 13.8381579,7.45265124 L13.8381579,7.45265124 Z M9.54008421,31 C4.27563158,30.9658476 0,26.7264933 0,21.5499049 C0,17.0515051 3.14545263,13.2912296 7.42751579,12.3350969 C7.358,11.9572605 7.32296842,11.5717297 7.32296842,11.1797193 C7.32296842,7.63596738 10.2456421,4.75285547 13.8381579,4.75285547 C15.0314211,4.75285547 16.1751474,5.06697671 17.173,5.65566718 C19.9072421,2.08883199 24.1262211,0 28.7306842,0 C35.9269368,0 41.9928737,5.22923443 43.069,12.1199232 C48.0499158,12.4509181 52,16.5539328 52,21.5499049 C52,26.7094846 47.7447579,30.9485689 42.5143789,30.9993251 L9.54008421,31 Z" id="Fill-1" fill="#2C69EE" mask="url(#mask-2)"></path>
            </g>
        </g>
    </g>
</svg>