<?xml version="1.0" encoding="UTF-8"?>
<svg width="49px" height="35px" viewBox="0 0 49 35" version="1.1" xmlns="http://www.w3.org/2000/svg" xmlns:xlink="http://www.w3.org/1999/xlink">
    <!-- Generator: Sketch 46.2 (44496) - http://www.bohemiancoding.com/sketch -->
    <title>Page 1</title>
    <desc>Created with Sketch.</desc>
    <defs></defs>
    <g id="Page-1" stroke="none" stroke-width="1" fill="none" fill-rule="evenodd">
        <g id="CityViewQuickMode" transform="translate(-50.000000, -474.000000)" fill="#2C69EE">
            <g id="Page-1" transform="translate(50.000000, 474.000000)">
                <path d="M42.176247,18.8366751 L5.28955731,18.8366751 C2.42236423,18.8366751 0,16.6778035 0,14.1224357 C0,11.5229703 2.36901974,9.40806892 5.28081231,9.40806892 C8.19041863,9.40806892 10.5575436,11.5090783 10.5575436,14.0914654 C10.5575436,14.7953705 9.90487534,15.3659631 9.10004409,15.3659631 C8.2950671,15.3659631 7.64254456,14.7953705 7.64254456,14.0914654 C7.64254456,12.9344765 6.5610799,11.9570642 5.28081231,11.9570642 C3.99850422,11.9570642 2.91499907,12.9486234 2.91499907,14.1224357 C2.91499907,15.2961206 4.00243947,16.2876798 5.28955731,16.2876798 L42.176247,16.2876798 C42.9810783,16.2876798 43.6337466,16.8582724 43.6337466,17.5621775 C43.6337466,18.2660825 42.9810783,18.8366751 42.176247,18.8366751 Z M47.5948102,13.3296739 L18.8078102,13.3296739 C15.2771302,13.3296739 12.4046411,10.3398933 12.4046411,6.66490936 C12.4046411,2.98992544 15.2640619,0 18.7787227,0 C22.285374,0 25.1380499,2.97790433 25.1380499,6.63811532 C25.1380499,7.4380261 24.5089464,8.08644192 23.73286,8.08644192 C22.9569142,8.08644192 22.3276702,7.4380261 22.3276702,6.63811532 C22.3276702,4.57511891 20.7355901,2.89665321 18.7787227,2.89665321 C16.8137053,2.89665321 15.2150208,4.58714002 15.2150208,6.66490936 C15.2150208,8.70733954 16.8602171,10.4330207 18.8078102,10.4330207 L47.5948102,10.4330207 C48.370756,10.4330207 49,11.0814365 49,11.8813473 C49,12.6812581 48.370756,13.3296739 47.5948102,13.3296739 Z M10.5864704,35 C8.85012626,35 7.22206224,34.3093058 6.00165789,33.0549294 C4.76938135,31.7884067 4.09066374,30.0873135 4.09066374,28.2653563 C4.09066374,24.5517126 7.01122351,21.5305626 10.6010603,21.5305626 L46.2940255,21.5305626 C47.083884,21.5305626 47.7244103,22.2019126 47.7244103,23.0301159 C47.7244103,23.8581692 47.083884,24.5296691 46.2940255,24.5296691 L10.6010603,24.5296691 C8.55446572,24.5296691 6.95143342,26.1704803 6.95143342,28.2653563 C6.95143342,30.3600822 8.54817202,32.0008934 10.5864704,32.0008934 C12.6207637,32.0008934 14.2142125,30.3479359 14.2142125,28.2376145 C14.2142125,27.4095612 14.8547388,26.7380613 15.6445973,26.7380613 C16.4345988,26.7380613 17.0749821,27.4095612 17.0749821,28.2376145 C17.0749821,31.9665537 14.164292,35 10.5864704,35 Z" id="Combined-Shape"></path>
            </g>
        </g>
    </g>
</svg>